<svg id="Layer_1" data-name="Layer 1" xmlns="http://www.w3.org/2000/svg" viewBox="0 0 61 53.7"><defs><style>.cls-1{fill:#fff;}.cls-2{fill:#231f20;}</style></defs><title>eyes4</title><path class="cls-1" d="M35.47,40.43A12.27,12.27,0,0,0,47.74,52.7h0A12.27,12.27,0,0,0,60,40.43V13.27A12.27,12.27,0,0,0,47.74,1h0A12.27,12.27,0,0,0,35.47,13.27Z"/><path class="cls-2" d="M47.74,53.7A13.28,13.28,0,0,1,34.47,40.43V13.27a13.27,13.27,0,0,1,26.54,0V40.43A13.28,13.28,0,0,1,47.74,53.7Zm0-51.7A11.28,11.28,0,0,0,36.47,13.27V40.43a11.27,11.27,0,0,0,22.54,0V13.27A11.28,11.28,0,0,0,47.74,2Z"/><path class="cls-2" d="M35.57,43.12a9.58,9.58,0,0,0,9.58,9.58h0a9.58,9.58,0,0,0,9.58-9.58V21.9a9.58,9.58,0,0,0-9.58-9.58h0a9.58,9.58,0,0,0-9.58,9.58Z"/><path class="cls-1" d="M25.54,40.43A12.27,12.27,0,0,1,13.27,52.7h0A12.27,12.27,0,0,1,1,40.43V13.27A12.27,12.27,0,0,1,13.27,1h0A12.27,12.27,0,0,1,25.54,13.27Z"/><path class="cls-2" d="M13.27,53.7A13.28,13.28,0,0,1,0,40.43V13.27a13.27,13.27,0,0,1,26.54,0V40.43A13.28,13.28,0,0,1,13.27,53.7Zm0-51.7A11.28,11.28,0,0,0,2,13.27V40.43a11.27,11.27,0,0,0,22.54,0V13.27A11.28,11.28,0,0,0,13.27,2Z"/><path class="cls-2" d="M25.44,43.12a9.58,9.58,0,0,1-9.58,9.58h0a9.58,9.58,0,0,1-9.58-9.58V21.9a9.58,9.58,0,0,1,9.58-9.58h0a9.58,9.58,0,0,1,9.58,9.58Z"/></svg>