<svg id="Layer_1" data-name="Layer 1" xmlns="http://www.w3.org/2000/svg" viewBox="0 0 110.54 54.13"><defs><style>.cls-1{fill:#fff;}.cls-2{fill:#231f20;}</style></defs><title>eyes</title><circle class="cls-1" cx="83.72" cy="26.82" r="25.82"/><path class="cls-2" d="M83.73,53.64a26.82,26.82,0,1,1,26.82-26.82A26.85,26.85,0,0,1,83.73,53.64ZM83.73,2a24.82,24.82,0,1,0,24.82,24.82A24.85,24.85,0,0,0,83.73,2Z"/><circle class="cls-2" cx="82.37" cy="30.73" r="21.23"/><circle class="cls-1" cx="69.18" cy="26.32" r="3.17"/><circle class="cls-1" cx="72.68" cy="33.06" r="2"/><circle class="cls-1" cx="86.8" cy="30.73" r="10.57"/><circle class="cls-1" cx="26.82" cy="27.31" r="25.82"/><path class="cls-2" d="M26.82,54.13A26.82,26.82,0,1,1,53.64,27.31,26.85,26.85,0,0,1,26.82,54.13Zm0-51.64A24.82,24.82,0,1,0,51.64,27.31,24.85,24.85,0,0,0,26.82,2.49Z"/><circle class="cls-2" cx="28.18" cy="31.23" r="21.23"/><circle class="cls-1" cx="15.66" cy="26.82" r="3.17"/><circle class="cls-1" cx="19.16" cy="33.55" r="2"/><circle class="cls-1" cx="33.28" cy="31.23" r="10.57"/></svg>