<svg id="Layer_1" data-name="Layer 1" xmlns="http://www.w3.org/2000/svg" viewBox="0 0 81.39 24.28"><defs><style>.cls-1{fill:#231f20;}</style></defs><title>eyes5</title><path class="cls-1" d="M47.45,17.95a2,2,0,0,1-.12-4l31.94-2a2,2,0,0,1,.25,4l-31.94,2Z"/><path class="cls-1" d="M51.25,14.42a2,2,0,0,1-.95-3.76L69.7.24a2,2,0,0,1,1.89,3.52L52.19,14.18a2,2,0,0,1-.94.24Z"/><path class="cls-1" d="M75.39,24.28l-.3,0L51.33,20.67a2,2,0,1,1,.6-4L75.69,20.3a2,2,0,0,1-.29,4Z"/><path class="cls-1" d="M33.94,17.95h-.12L1.88,16a2,2,0,1,1,.25-4l31.94,2a2,2,0,0,1-.12,4Z"/><path class="cls-1" d="M30.15,14.42a2,2,0,0,1-.94-.24L9.8,3.76A2,2,0,0,1,11.7.24L31.1,10.66a2,2,0,0,1-.95,3.76Z"/><path class="cls-1" d="M6,24.28a2,2,0,0,1-.3-4l23.76-3.58a2,2,0,1,1,.6,4L6.3,24.26l-.3,0Z"/></svg>