<svg xmlns="http://www.w3.org/2000/svg" viewBox="0 0 58.42 53.7"><defs><style>.cls-1{isolation:isolate;}.cls-2{fill:#fff;}.cls-3{fill:#d0d2d3;mix-blend-mode:multiply;}</style></defs><title>eyes3</title><g class="cls-1"><g id="Layer_1" data-name="Layer 1"><path class="cls-2" d="M11.22,51.5a9.58,9.58,0,0,1-5-8.39V21.9a9.58,9.58,0,0,1,0-1,11.89,11.89,0,0,1-3,.55h0A3.53,3.53,0,0,1,2,21.23v19.2A11.28,11.28,0,0,0,11.22,51.5Z"/><path class="cls-3" d="M2,17a3.75,3.75,0,0,0,.42,2.16c.13.17.33.33.9.33a14,14,0,0,0,3.25-.69,24.38,24.38,0,0,1,6.7-1.2,24.37,24.37,0,0,1,6.7,1.2,14,14,0,0,0,3.25.69c.59,0,1.32,0,1.32-2.49V13.27A11.27,11.27,0,0,0,2,13.27Z"/><path d="M13.27,0A13.28,13.28,0,0,0,0,13.27V40.43A13.24,13.24,0,0,0,21,51.18a9.66,9.66,0,0,0,2.8-2.73,13.18,13.18,0,0,0,2.72-8V13.27A13.28,13.28,0,0,0,13.27,0Zm0,2A11.28,11.28,0,0,1,24.54,13.27V17c0,2.49-.73,2.49-1.32,2.49A14,14,0,0,1,20,18.78a24.37,24.37,0,0,0-6.7-1.2,24.38,24.38,0,0,0-6.7,1.2,14,14,0,0,1-3.25.69c-.58,0-.77-.16-.9-.33A3.75,3.75,0,0,1,2,17V13.27A11.28,11.28,0,0,1,13.27,2ZM2,21.23a3.53,3.53,0,0,0,1.32.24h0a11.89,11.89,0,0,0,3-.55,9.58,9.58,0,0,0,0,1V43.12a9.58,9.58,0,0,0,5,8.39A11.28,11.28,0,0,1,2,40.43Z"/><path class="cls-2" d="M56.42,40.43V21.24a3.57,3.57,0,0,1-1.32.23,11.89,11.89,0,0,1-3-.55,9.76,9.76,0,0,1,0,1V43.12a9.58,9.58,0,0,1-5,8.39A11.28,11.28,0,0,0,56.42,40.43Z"/><path class="cls-3" d="M35.2,19.47a14,14,0,0,0,3.25-.69,24.37,24.37,0,0,1,6.7-1.2,24.37,24.37,0,0,1,6.7,1.2,14,14,0,0,0,3.25.69c.59,0,1.32,0,1.32-2.49V13.27a11.27,11.27,0,0,0-22.54,0V17C33.88,19.47,34.61,19.47,35.2,19.47Z"/><path d="M45.15,0A13.28,13.28,0,0,0,31.88,13.27V40.43a13.18,13.18,0,0,0,2.72,8,9.63,9.63,0,0,0,2.8,2.73,13.24,13.24,0,0,0,21-10.75V13.27A13.28,13.28,0,0,0,45.15,0ZM33.88,13.27a11.27,11.27,0,0,1,22.54,0V17c0,2.49-.73,2.49-1.32,2.49a14,14,0,0,1-3.25-.69,24.37,24.37,0,0,0-6.7-1.2,24.37,24.37,0,0,0-6.7,1.2,14,14,0,0,1-3.25.69c-.59,0-1.32,0-1.32-2.49ZM52.15,43.12V21.9a9.76,9.76,0,0,0,0-1,11.89,11.89,0,0,0,3,.55,3.57,3.57,0,0,0,1.32-.23V40.43A11.28,11.28,0,0,1,47.2,51.5,9.58,9.58,0,0,0,52.15,43.12Z"/></g></g></svg>