<svg id="Layer_1" data-name="Layer 1" xmlns="http://www.w3.org/2000/svg" viewBox="0 0 79.37 20.1"><title>eyes1</title><path d="M77.87,20.1a1.5,1.5,0,0,1-1.5-1.5c0-7-10.22-15.6-18.54-15.6a8.47,8.47,0,0,0-7,3.25c-2.09,2.65-3.14,6.8-3.14,12.35a1.5,1.5,0,0,1-3,0c0-6.23,1.27-11,3.79-14.2A11.49,11.49,0,0,1,57.84,0C67.9,0,79.37,9.91,79.37,18.6a1.5,1.5,0,0,1-1.5,1.5Z"/><path d="M33.19,20.1a1.5,1.5,0,0,1-1.5-1.5c0-5.54-1.06-9.7-3.14-12.35a8.47,8.47,0,0,0-7-3.25C13.22,3,3,11.6,3,18.6a1.5,1.5,0,0,1-3,0C0,9.91,11.47,0,21.54,0a11.49,11.49,0,0,1,9.37,4.4c2.51,3.19,3.79,8,3.79,14.2a1.5,1.5,0,0,1-1.5,1.5Z"/></svg>