<svg id="Layer_1" data-name="Layer 1" xmlns="http://www.w3.org/2000/svg" viewBox="0 0 127.74 56.45"><defs><style>.cls-1{fill:#231f20;}</style></defs><title>hair2</title><path class="cls-1" d="M127.69,41.94C125.32,25.81,115.8,12.34,99.52,6.61c-14.68-5.17-32.41-8-48-6C48,1.11,41,3.13,39.36,7c-3.2-1.34-6-3.41-9-5.13-4.08-2.36-7.78,3.7-3.73,6,2.42,1.4,4.73,2.89,7.17,4.17a4.1,4.1,0,0,0-.66.1C26.56,13.74,19.48,14,13.31,16.87,7.76,19.41,4.91,23.09,2.67,28.42-.46,35.85-3,48.23,8.29,50.55,16.61,52.26,22.81,43,26.5,37.47c2.56-3.86,4.78-7.91,7-11.92,1.4-2.48,2.73-5.57,4.79-7.7a3.55,3.55,0,0,0,1.83,1.06C54.29,22.45,63.68,34.35,75.93,41.2c11.23,6.28,23.81,16.25,37.65,15.17,4.71-.37,4.75-7.37,0-7-7.11.56-13.46-2.64-19.46-5.91-3.28-1.79-6.59-3.62-9.86-5.51,12.18,5.76,24.79,10.19,39.16,9.75a3.47,3.47,0,0,0,3.37-2.42A4.35,4.35,0,0,0,127.69,41.94Z"/></svg>