<svg id="Layer_1" data-name="Layer 1" xmlns="http://www.w3.org/2000/svg" viewBox="0 0 152.74 157.54"><title>hair4</title><path d="M148.86,60.28c-5.1-10.23-17.12-14.87-26.2-20.69-6.54-4.18-10.32-8.31-9.56-16.32.64-6.7,2.62-12.94,2.17-19.75-.22-3.25-4.82-5.07-6.52-1.77-2.29,4.44-18.06,28-24,20A3.58,3.58,0,0,0,79.3,21c-10.11,8.44-25,9-37.47,10.84-12.77,1.88-26.47,5-34.88,15.61-10.16,12.88-7,30.75-4,45.6,4,19.94,8.88,40.07,10,60.43.25,4.49,7.25,4.51,7,0,0-.27,0-.53,0-.79a4.56,4.56,0,0,0,0-.55c0-11.09-.75-22.2.39-33.26,1-10,4.65-22.35,13-28.79,6.53-5,15.42-5.62,23.33-5.76,8.51-.15,17,.61,25.5.15,7.42-.4,14.17-2.87,21.49-.33,6.19,2.15,10.52,7.88,13.59,13.36,6.94,12.43,9,27.93,9,42a3.18,3.18,0,0,0,2.06,3.09q-.85,5.72-1.39,11.57c-.42,4.5,6.58,4.46,7,0a182.82,182.82,0,0,1,4.22-26.72c2.09-8.53,5.65-16.33,9-24.4C152.71,89.83,155.52,73.65,148.86,60.28Z"/></svg>