<svg id="Layer_1" data-name="Layer 1" xmlns="http://www.w3.org/2000/svg" viewBox="0 0 140.24 133.46"><title>hair3</title><path d="M140.19,66.83c-.39-8.76-2.51-17.9-7-25.47a23.75,23.75,0,0,0-8.24-8c-2.12-1.29-4.52-2.1-6.67-3.37-2.93-1.72-4.74-5-6.53-7.82-2.37-3.67-5.17-6.83-9.12-8.83-4.15-2.1-10-1.29-12.69-5.64C88.44,5.33,88.67,3.4,86.2,1.54c-2.83-2.12-7-1.63-10.22-1C67.71,2.19,60,6.47,52.11,9.33c-4,1.46-8.29,2.16-12.31,3.76-.61.24-1.22.5-1.82.77-2.12-.2-4.27-.8-6.44-.72-5.47.22-7.82,5.29-9,9.92-5.82-.27-11.68.93-15.26,6.08C2,36.67,2.3,47.08,1.13,55.78.28,62.13-.43,68.46.32,74.85,1,81,2.52,87.07,3.69,93.16c2.34,12.15,1.67,24,7.11,35.46,1.58,3.33,5.91,1.56,6.37-1.42l0-.09c2.9-15,.36-30.78,3.87-45.66a3.59,3.59,0,0,0,2.13-2.34c2.07-8.62,1.21-16.73,7.17-24,3.71-4.51,7.8-8.62,11.38-13.17a8.52,8.52,0,0,0,4,2.72c3.37,1.15,7.61-.75,10.88-1.46,2.07-.45,8.16-1.47,8.16.84,0,3.77-1.3,7.72-1.76,11.47-.3,2.46,2.44,3.71,4.43,3.37C77.74,57.12,87.23,50.75,97.85,51c4.83.09,10.43,2.9,14.19,5.84,4.65,3.63,6.39,9.18,7,14.83,2.27,20-8.17,39.85,1.73,59a3.24,3.24,0,0,0,1.32,1.39,3.85,3.85,0,0,0,6.06-.06c6.5-8.87,7-21.83,8.39-32.4C137.94,88.83,140.67,77.66,140.19,66.83Z"/></svg>