<svg id="Layer_1" data-name="Layer 1" xmlns="http://www.w3.org/2000/svg" viewBox="0 0 208.2 162.59"><title>hair</title><path d="M206.18,65.32c-4.73-21-13.34-45.67-34.75-54.7C145.3-.41,115.81-1.16,87.92.92,67.29,2.46,45.83,3,27.09,12.81c-15.14,7.95-21,22.68-24,38.54A176.7,176.7,0,0,0,.9,102c1.65,16.31,5.42,33.35,15.71,46.52a36,36,0,0,0,29.2,14.1,7.84,7.84,0,0,0,2.71-.51c1.85.47,3.48,0,5.69-.32a2.67,2.67,0,0,0,2.46-2.15c11.27-7.81,6.87-33.68,6.77-44.56a4,4,0,0,0-.09-.8c.58-3.31,1.57-6.32,3.36-8.47C73.19,98,84.95,96.25,94.4,95.66a81.1,81.1,0,0,1,30.2,3.57,31.81,31.81,0,0,1,18.69,15.69c4.82,9.09,3.83,16.24,4.69,26.08.42,4.79,1.36,9.41,4.74,13,4,4.3,11,3.38,15.89,1.4,10.35-4.22,18.33-11.8,24.65-20.86C206.65,115.42,211.28,88,206.18,65.32Z"/></svg>