<svg id="Layer_1" data-name="Layer 1" xmlns="http://www.w3.org/2000/svg" viewBox="0 0 95.51 75.37"><defs><style>.cls-1{fill:#231f20;}</style></defs><title>mustache1</title><path class="cls-1" d="M95.37,60.2c-1.69-14,.2-27.5-5.59-40.78C83.16,4.26,65.19,1,50.55.16,35.27-.71,16.29,1.58,6.69,15-2.55,27.91.5,47.07.43,62c-.08,15.77,24.36,16.26,24.44.51.05-10.88-1.81-23,1.66-33.5,2-6.14,20.94-4.52,25.38-4.26,8.6.49,15.37,1.66,17.36,9.58,2.54,10.13,1.16,21.53,2.41,31.91.8,6.63,9,10.32,14.85,8.85C93.6,73.25,96.17,66.81,95.37,60.2Z"/></svg>