<svg id="Layer_1" data-name="Layer 1" xmlns="http://www.w3.org/2000/svg" viewBox="0 0 145.46 149.64"><defs><style>.cls-1{fill:#231f20;}</style></defs><title>mustache</title><path class="cls-1" d="M143.72,55.89c-1.33-8.64-3.54-17.12-5.44-25.64s-4.31-17.12-8.52-25C126.5-.79,118,1.29,116.06,7.1c-1.8,5.24-6.56,9.94-12.35,13.32-2.29-4.76-5-9.3-9-12.9C89.57,2.78,83,1,76.22.31A49.39,49.39,0,0,0,52.33,3.46C45.66,6.24,40,10.51,34.53,15.11c-.66,0-1.31-.05-2-.06-5.14-.08-9.94-1.7-14.79-3.21a6.87,6.87,0,0,0-1.65-.29c-4.39-2.79-11.81-.81-11.83,6C4.22,33.63,2.62,49.66,1.4,65.71c-1,12.69-3,27,1,39.39C6,116.17,15,122.57,24.5,128.36c10.26,6.24,20.4,12.41,31.52,17.05,10.9,4.55,23.35,6.49,34,.36,5-2.88,8.93-7.54,12.71-11.83,4.78-5.42,10.9-9,16.51-13.5,8.57-6.83,17.26-12.92,21.92-23.24C147,84.25,145.84,69.56,143.72,55.89ZM80.44,25.31c-4.56-1.11-9.29-3.73-13.95-5.21A88.71,88.71,0,0,0,57,17.68C62,15.17,68,15,73.53,15.14c3.64.11,7.82.69,10.66,3a22.67,22.67,0,0,1,5.43,7.32A24.09,24.09,0,0,1,80.44,25.31Z"/></svg>