<svg id="Layer_1" data-name="Layer 1" xmlns="http://www.w3.org/2000/svg" viewBox="0 0 73.06 91.44"><defs><style>.cls-1{fill:#231f20;}</style></defs><title>mustache6</title><path class="cls-1" d="M72.81,57.28c-.32-5.17-1-10.32-1.15-15.51-.16-4.69.55-9.41.69-14.1.3-10.57-2.37-21.23-13-25.49C51.44-1,41.29-.05,33,1,24.15,2.21,14.46,4.53,7.49,10.51-.22,17.13-.18,28.74.07,38.08.31,47,1,56.71,3.55,65.48c-.28,6.94.53,13.67,5,18.4C15.23,91,26.7,89.43,35.59,90.52c9.27,1.14,20.09,2.21,28.28-3.28C73.57,80.74,73.45,67.67,72.81,57.28ZM15.49,26.47c.63-3.83.67-4.05,3.19-5.67,6.77-4.37,16.17-5.36,24.11-5.61A40.69,40.69,0,0,1,53.3,16c.53.12,1,.29,1.55.46a5.82,5.82,0,0,1,.61.39c1.11,1,1.49,3.2,1.67,4.6.59,4.75.09,9.63-.25,14.38a66.23,66.23,0,0,0-.11,6.88C47,36.36,25.89,46.23,16.4,40.23a6.84,6.84,0,0,0-1.26-.61c0-.05,0-.1,0-.16A62.84,62.84,0,0,1,15.49,26.47Z"/></svg>