<svg id="Layer_1" data-name="Layer 1" xmlns="http://www.w3.org/2000/svg" viewBox="0 0 185.65 42.21"><defs><style>.cls-1{fill:#231f20;}</style></defs><title>mustache5</title><path class="cls-1" d="M9.07,19.59A12.46,12.46,0,0,0,20.83,30.21a13.45,13.45,0,0,0,12.24-7.55C37.35,13,29.83,3.55,21.48,2.88A16,16,0,0,0,4.58,15.66c-1.41,7.4,2.65,14.5,8.37,17.93,5.94,3.83,12.8,2.5,19.07.52a109.76,109.76,0,0,0,18.37-7.34A125.46,125.46,0,0,0,82,4l7.1,8.28a135.13,135.13,0,0,1-35.5,22.05,117.38,117.38,0,0,1-20.08,6.46c-3.65.7-6.59,1.51-11.34,1.43A22.94,22.94,0,0,1,9.82,38.06C2.67,32.94-1.68,24,.62,14.64A19.44,19.44,0,0,1,21.91.19c10,1.46,17.59,12.7,12.36,23.12a14.51,14.51,0,0,1-13.49,7.58A12.81,12.81,0,0,1,9.07,19.59Z"/><path class="cls-1" d="M176.59,19.59a12.46,12.46,0,0,1-11.76,10.62,13.45,13.45,0,0,1-12.24-7.55C148.3,13,155.83,3.55,164.18,2.88a16,16,0,0,1,16.9,12.78c1.41,7.4-2.65,14.5-8.37,17.93-5.93,3.83-12.8,2.5-19.07.52a109.74,109.74,0,0,1-18.37-7.34A125.45,125.45,0,0,1,103.69,4l-7.1,8.28a135.13,135.13,0,0,0,35.5,22.05,117.35,117.35,0,0,0,20.08,6.46c3.65.7,6.59,1.51,11.34,1.43a22.94,22.94,0,0,0,12.32-4.15c7.15-5.12,11.5-14,9.21-23.42A19.44,19.44,0,0,0,163.74.19c-10,1.46-17.59,12.7-12.36,23.12a14.51,14.51,0,0,0,13.49,7.58A12.81,12.81,0,0,0,176.59,19.59Z"/></svg>