<svg id="Layer_1" data-name="Layer 1" xmlns="http://www.w3.org/2000/svg" viewBox="0 0 41.69 13.67"><title>nose1</title><path d="M39,.32a1,1,0,1,0-1.47,1.35c3.21,3.5,2.46,4.32,0,7-.81.9-1.33.78-3.05-.71-1-.82-2-1.75-3.24-1.27a6.18,6.18,0,0,0-1.81,1.37,11.06,11.06,0,0,1-8.62,3.55,11.06,11.06,0,0,1-8.62-3.55,6.18,6.18,0,0,0-1.81-1.37C9.21,6.26,8.13,7.19,7.18,8,5.45,9.5,4.94,9.62,4.12,8.72c-2.47-2.72-3.21-3.54,0-7A1,1,0,0,0,2.65.32c-4.22,4.61-2.75,6.7,0,9.74,2.29,2.52,4.6.53,5.84-.54a7.66,7.66,0,0,1,1.2-.93,5.66,5.66,0,0,1,1.18,1,13.12,13.12,0,0,0,10,4.1h0a13.12,13.12,0,0,0,10-4.1,7.87,7.87,0,0,1,1.1-1,5,5,0,0,1,1.27.91c1.24,1.07,3.55,3.07,5.84.54C41.8,7,43.27,4.93,39,.32Z"/></svg>