<svg id="Layer_1" data-name="Layer 1" xmlns="http://www.w3.org/2000/svg" viewBox="0 0 112.66 221.3"><defs><style>.cls-1{fill:#e3c8ad;}.cls-2{fill:#231f20;}</style></defs><title>skin1</title><rect class="cls-1" x="2" y="2" width="108.66" height="217.3" rx="40.04" ry="40.04"/><path class="cls-2" d="M71.09,222.24H42.51a42.08,42.08,0,0,1-42-42V43a42.08,42.08,0,0,1,42-42H71.09a42.08,42.08,0,0,1,42,42V180.2a42.08,42.08,0,0,1-42,42ZM42.51,4.93a38.08,38.08,0,0,0-38,38V180.2a38.08,38.08,0,0,0,38,38H71.09a38.08,38.08,0,0,0,38-38V43a38.08,38.08,0,0,0-38-38Z" transform="translate(-0.47 -0.93)"/></svg>