<svg id="Layer_1" data-name="Layer 1" xmlns="http://www.w3.org/2000/svg" viewBox="0 0 112.66 221.3"><defs><style>.cls-1{fill:#3b2314;}.cls-2{fill:#231f20;}</style></defs><title>skin2</title><rect class="cls-1" x="2" y="2" width="108.66" height="217.3" rx="40.04" ry="40.04"/><path class="cls-2" d="M71.15,223.13H42.57a42.08,42.08,0,0,1-42-42V43.86a42.08,42.08,0,0,1,42-42H71.15a42.08,42.08,0,0,1,42,42V181.09a42.08,42.08,0,0,1-42,42ZM42.57,5.82a38.08,38.08,0,0,0-38,38V181.09a38.08,38.08,0,0,0,38,38H71.15a38.08,38.08,0,0,0,38-38V43.86a38.08,38.08,0,0,0-38-38Z" transform="translate(-0.53 -1.82)"/></svg>