<svg id="Layer_1" data-name="Layer 1" xmlns="http://www.w3.org/2000/svg" viewBox="0 0 112.65 221.3"><defs><style>.cls-1{fill:#e4d9d0;}.cls-2{fill:#231f20;}</style></defs><title>skin3</title><rect class="cls-1" x="2" y="2" width="108.65" height="217.3" rx="40.04" ry="40.04"/><path class="cls-2" d="M71.09,223.13H42.51a42.08,42.08,0,0,1-42-42V43.86a42.08,42.08,0,0,1,42-42H71.09a42.08,42.08,0,0,1,42,42V181.09a42.08,42.08,0,0,1-42,42ZM42.51,5.82a38.08,38.08,0,0,0-38,38V181.09a38.08,38.08,0,0,0,38,38H71.09a38.08,38.08,0,0,0,38-38V43.86a38.08,38.08,0,0,0-38-38Z" transform="translate(-0.47 -1.82)"/></svg>