<svg id="Layer_1" data-name="Layer 1" xmlns="http://www.w3.org/2000/svg" viewBox="0 0 112.65 221.3"><defs><style>.cls-1{fill:#c3996b;}.cls-2{fill:#231f20;}</style></defs><title>skin</title><rect class="cls-1" x="2" y="2" width="108.65" height="217.3" rx="40.04" ry="40.04"/><path class="cls-2" d="M70.62,221.3H42a42.08,42.08,0,0,1-42-42V42A42.08,42.08,0,0,1,42,0H70.62a42.08,42.08,0,0,1,42,42V179.27a42.08,42.08,0,0,1-42,42ZM42,4A38.08,38.08,0,0,0,4,42V179.27a38.08,38.08,0,0,0,38,38H70.62a38.08,38.08,0,0,0,38-38V42a38.08,38.08,0,0,0-38-38Z"/></svg>